<?xml version="1.0" encoding="UTF-8" standalone="no"?>
<!DOCTYPE svg PUBLIC "-//W3C//DTD SVG 1.1//EN"
 "http://www.w3.org/Graphics/SVG/1.1/DTD/svg11.dtd">
<!-- Generated by graphviz version 2.36.0 (20140111.2315)
 -->
<!-- Title: G Pages: 1 -->
<svg width="646pt" height="338pt"
 viewBox="0.00 0.00 646.00 338.00" xmlns="http://www.w3.org/2000/svg" xmlns:xlink="http://www.w3.org/1999/xlink">
<g id="graph0" class="graph" transform="scale(1 1) rotate(0) translate(4 334)">
<title>G</title>
<polygon fill="white" stroke="none" points="-4,4 -4,-334 642,-334 642,4 -4,4"/>
<g id="clust1" class="cluster"><title>cluster_Global</title>
<path fill="none" stroke="gray" d="M462,-8C462,-8 618,-8 618,-8 624,-8 630,-14 630,-20 630,-20 630,-310 630,-310 630,-316 624,-322 618,-322 618,-322 462,-322 462,-322 456,-322 450,-316 450,-310 450,-310 450,-20 450,-20 450,-14 456,-8 462,-8"/>
<text text-anchor="middle" x="540" y="-309.2" font-family="Times,serif" font-size="11.00" fill="gray">Global</text>
</g>
<g id="clust2" class="cluster"><title>cluster_\Toolbox</title>
<path fill="none" stroke="gray" d="M470,-16C470,-16 610,-16 610,-16 616,-16 622,-22 622,-28 622,-28 622,-282 622,-282 622,-288 616,-294 610,-294 610,-294 470,-294 470,-294 464,-294 458,-288 458,-282 458,-282 458,-28 458,-28 458,-22 464,-16 470,-16"/>
<text text-anchor="middle" x="540" y="-281.2" font-family="Times,serif" font-size="11.00" fill="gray">Toolbox</text>
</g>
<g id="clust3" class="cluster"><title>cluster_\Toolbox\Models</title>
<path fill="none" stroke="gray" d="M517,-194C517,-194 563,-194 563,-194 569,-194 575,-200 575,-206 575,-206 575,-254 575,-254 575,-260 569,-266 563,-266 563,-266 517,-266 517,-266 511,-266 505,-260 505,-254 505,-254 505,-206 505,-206 505,-200 511,-194 517,-194"/>
<text text-anchor="middle" x="540" y="-253.2" font-family="Times,serif" font-size="11.00" fill="gray">Models</text>
</g>
<g id="clust4" class="cluster"><title>cluster_\Toolbox\Console</title>
<path fill="none" stroke="gray" d="M478,-24C478,-24 602,-24 602,-24 608,-24 614,-30 614,-36 614,-36 614,-174 614,-174 614,-180 608,-186 602,-186 602,-186 478,-186 478,-186 472,-186 466,-180 466,-174 466,-174 466,-36 466,-36 466,-30 472,-24 478,-24"/>
<text text-anchor="middle" x="540" y="-173.2" font-family="Times,serif" font-size="11.00" fill="gray">Console</text>
</g>
<g id="clust5" class="cluster"><title>cluster_\Toolbox\Console\Command</title>
<path fill="none" stroke="gray" d="M486,-32C486,-32 594,-32 594,-32 600,-32 606,-38 606,-44 606,-44 606,-146 606,-146 606,-152 600,-158 594,-158 594,-158 486,-158 486,-158 480,-158 474,-152 474,-146 474,-146 474,-44 474,-44 474,-38 480,-32 486,-32"/>
<text text-anchor="middle" x="540" y="-145.2" font-family="Times,serif" font-size="11.00" fill="gray">Command</text>
</g>
<!-- \\Toolbox\\Models\\Csv -->
<g id="node1" class="node"><title>\\Toolbox\\Models\\Csv</title>
<polygon fill="none" stroke="black" points="567,-238 513,-238 513,-202 567,-202 567,-238"/>
<text text-anchor="middle" x="540" y="-217.2" font-family="Courier,monospace" font-size="11.00">Csv</text>
</g>
<!-- \\Toolbox\\Console\\Command\\CsvJsonCommand -->
<g id="node2" class="node"><title>\\Toolbox\\Console\\Command\\CsvJsonCommand</title>
<polygon fill="none" stroke="black" points="594.5,-130 485.5,-130 485.5,-94 594.5,-94 594.5,-130"/>
<text text-anchor="middle" x="540" y="-109.2" font-family="Courier,monospace" font-size="11.00">CsvJsonCommand</text>
</g>
<!-- \\Symfony\\Component\\Console\\Command\\Command -->
<g id="node4" class="node"><title>\\Symfony\\Component\\Console\\Command\\Command</title>
<ellipse fill="none" stroke="black" cx="205" cy="-85" rx="204.964" ry="18"/>
<text text-anchor="middle" x="205" y="-81.3" font-family="Times,serif" font-size="14.00" fill="gray">\Symfony\Component\Console\Command\Command</text>
</g>
<!-- \\Toolbox\\Console\\Command\\CsvJsonCommand&#45;&gt;\\Symfony\\Component\\Console\\Command\\Command -->
<g id="edge1" class="edge"><title>\\Toolbox\\Console\\Command\\CsvJsonCommand&#45;&gt;\\Symfony\\Component\\Console\\Command\\Command</title>
<path fill="none" stroke="black" d="M485.498,-107.662C452.835,-105.014 409.187,-101.475 366.109,-97.9819"/>
<polygon fill="none" stroke="black" points="366.309,-94.4866 356.059,-97.1669 365.743,-101.464 366.309,-94.4866"/>
</g>
<!-- \\Toolbox\\Console\\Command\\CsvTableCommand -->
<g id="node3" class="node"><title>\\Toolbox\\Console\\Command\\CsvTableCommand</title>
<polygon fill="none" stroke="black" points="598,-76 482,-76 482,-40 598,-40 598,-76"/>
<text text-anchor="middle" x="540" y="-55.2" font-family="Courier,monospace" font-size="11.00">CsvTableCommand</text>
</g>
<!-- \\Toolbox\\Console\\Command\\CsvTableCommand&#45;&gt;\\Symfony\\Component\\Console\\Command\\Command -->
<g id="edge2" class="edge"><title>\\Toolbox\\Console\\Command\\CsvTableCommand&#45;&gt;\\Symfony\\Component\\Console\\Command\\Command</title>
<path fill="none" stroke="black" d="M481.755,-62.6415C449.63,-65.2462 407.79,-68.6387 366.448,-71.9907"/>
<polygon fill="none" stroke="black" points="365.922,-68.5218 356.237,-72.8186 366.487,-75.4989 365.922,-68.5218"/>
</g>
</g>
</svg>
